<?xml version="1.0" encoding="utf-8"?>
<!-- Generator: Adobe Illustrator 19.0.0, SVG Export Plug-In . SVG Version: 6.00 Build 0)  -->
<svg version="1.1" id="Layer_1" xmlns="http://www.w3.org/2000/svg" xmlns:xlink="http://www.w3.org/1999/xlink" x="0px" y="0px"
	 viewBox="0 0 100 100" style="enable-background:new 0 0 100 100;" xml:space="preserve">
<style type="text/css">
	.st0{fill:#155674;}
	.st1{fill:#FFFFFF;}
</style>
<g id="XMLID_55_">
	<circle id="XMLID_77_" class="st0" cx="48.4" cy="48.8" r="25"/>
	<g id="XMLID_109_">
		<g id="XMLID_101_">
			<g id="Sun_1_1_">
				<g id="XMLID_86_">
					<path id="XMLID_91_" class="st1" d="M38.8,31.3c-0.3,0-0.6,0.3-0.6,0.6V33c0,0.3,0.3,0.6,0.6,0.6c0.3,0,0.6-0.3,0.6-0.6v-1.1
						C39.4,31.5,39.2,31.3,38.8,31.3z M46.8,39.2h-1.1c-0.3,0-0.6,0.3-0.6,0.6s0.3,0.6,0.6,0.6h1.1c0.3,0,0.6-0.3,0.6-0.6
						S47.1,39.2,46.8,39.2z M32,39.2h-1.1c-0.3,0-0.6,0.3-0.6,0.6s0.3,0.6,0.6,0.6H32c0.3,0,0.6-0.3,0.6-0.6S32.3,39.2,32,39.2z
						 M44.1,33.8l-0.8,0.8c-0.2,0.2-0.2,0.6,0,0.8c0.2,0.2,0.6,0.2,0.8,0l0.8-0.8c0.2-0.2,0.2-0.6,0-0.8
						C44.7,33.5,44.3,33.5,44.1,33.8z M33.6,33.8c-0.2-0.2-0.6-0.2-0.8,0c-0.2,0.2-0.2,0.6,0,0.8l0.8,0.8c0.2,0.2,0.6,0.2,0.8,0
						c0.2-0.2,0.2-0.6,0-0.8L33.6,33.8z"/>
				</g>
			</g>
			<g id="XMLID_363_">
				<g id="Lightbulb_1_2_">
					<g id="XMLID_56_">
						<path id="XMLID_57_" class="st1" d="M37.4,47.1l0.1,0.4l0.4,0.1l2.6-1.6v-0.8L37.4,47.1z M40.2,43.7l-3,1.8v0.8l3.2-1.9
							L40.2,43.7z"/>
					</g>
				</g>
				<g id="Lightbulb_2_2_">
					<g id="XMLID_16_">
						<path id="XMLID_17_" class="st1" d="M41.6,43.2L40.9,43c0-0.1,0-0.2-0.1-0.4c-0.2,0.2-0.5,0.3-0.8,0.4c0,0.1,0,0.1,0,0.2v3.4
							c0,0.5-0.4,0.8-0.8,0.8h-0.8c-0.5,0-0.8-0.4-0.8-0.8v-3.4c0-0.1,0-0.1,0-0.2c-0.3-0.1-0.5-0.2-0.8-0.4c0,0.1-0.1,0.2-0.1,0.4
							l-0.7,0.2l0,0c0.4,0.3,0.7,0.8,0.7,1.3v2.1c0,0.9,0.8,1.7,1.7,1.7h0.8c0.9,0,1.7-0.8,1.7-1.7v-2.1C41,44,41.2,43.5,41.6,43.2
							L41.6,43.2z"/>
					</g>
				</g>
				<g id="Lightbulb_3_2_">
					<g id="XMLID_66_">
						<path id="XMLID_67_" class="st1" d="M40.5,38.2c-0.7,0-1.3,0.6-1.3,1.3v0.4h-0.8v-0.4c0-0.7-0.6-1.3-1.3-1.3
							c-0.7,0-1.3,0.6-1.3,1.3c0,0.7,0.6,1.3,1.3,1.3h0.4v2.5c0,0.2,0.2,0.4,0.4,0.4s0.4-0.2,0.4-0.4v-2.5h0.8v2.5
							c0,0.2,0.2,0.4,0.4,0.4c0.2,0,0.4-0.2,0.4-0.4v-2.5h0.4c0.7,0,1.3-0.6,1.3-1.3C41.8,38.8,41.2,38.2,40.5,38.2z M37.6,39.9
							h-0.4c-0.2,0-0.4-0.2-0.4-0.4c0-0.2,0.2-0.4,0.4-0.4c0.2,0,0.4,0.2,0.4,0.4V39.9z M40.5,39.9h-0.4v-0.4c0-0.2,0.2-0.4,0.4-0.4
							s0.4,0.2,0.4,0.4C41,39.7,40.8,39.9,40.5,39.9z"/>
					</g>
				</g>
				<g id="Lightbulb_4_2_">
					<g id="XMLID_43_">
						<path id="XMLID_44_" class="st1" d="M38.8,34.8c-2.6,0-4.6,2.1-4.6,4.6s2.1,4.6,4.6,4.6c2.6,0,4.6-2.1,4.6-4.6
							S41.4,34.8,38.8,34.8z M38.8,43.2c-2.1,0-3.8-1.7-3.8-3.8c0-2.1,1.7-3.8,3.8-3.8c2.1,0,3.8,1.7,3.8,3.8
							C42.6,41.5,40.9,43.2,38.8,43.2z"/>
					</g>
				</g>
			</g>
		</g>
		<g id="User_2_">
			<g id="XMLID_51_">
				<path id="XMLID_52_" class="st1" d="M73.8,65.4c-1.1-1.1-3-2.1-6-3.6c-1.5-0.8-4-2-4.6-2.6c2.6-3.1,4-6.7,4-9.8
					c0-2.1,0-4.7-1.2-7.1c-1.1-2.1-3.4-4.6-8.7-4.6c-5.3,0-7.7,2.5-8.7,4.6c-1.2,2.3-1.2,5-1.2,7.1c0,3.1,1.5,6.7,4,9.8
					c-0.6,0.6-3.1,1.8-4.6,2.6c-3,1.5-4.9,2.5-6,3.6C38.2,67.9,38,72.2,38,73c0,0.9,0.3,1.7,0.9,2.3c0.6,0.6,1.4,1,2.3,1h32.1
					c0.9,0,1.7-0.3,2.3-1c0.6-0.6,0.9-1.4,0.9-2.3C76.5,72.2,76.4,67.9,73.8,65.4z M73.9,73.6c-0.2,0.2-0.4,0.2-0.6,0.2H41.2
					c-0.2,0-0.4-0.1-0.6-0.2c-0.2-0.2-0.2-0.4-0.2-0.6c0-0.4,0.1-4,2-5.9c0.9-0.9,2.7-1.8,5.4-3.2c2.9-1.4,4.5-2.3,5.2-3l1.6-1.5
					l-1.4-1.7c-2.2-2.7-3.5-5.7-3.5-8.3c0-1.9,0-4.2,0.9-6c1.1-2.2,3.3-3.3,6.6-3.3s5.5,1.1,6.6,3.3c0.9,1.8,0.9,4,0.9,6
					c0,2.5-1.3,5.5-3.5,8.3l-1.4,1.7l1.6,1.5c0.7,0.7,2.3,1.6,5.2,3c2.7,1.4,4.5,2.3,5.4,3.2c1.5,1.5,2,4.4,2,5.9
					C74.2,73.2,74.1,73.4,73.9,73.6z"/>
			</g>
		</g>
	</g>
</g>
</svg>
