<?xml version="1.0" encoding="utf-8"?>
<!-- Generator: Adobe Illustrator 19.0.0, SVG Export Plug-In . SVG Version: 6.00 Build 0)  -->
<svg version="1.1" id="Layer_1" xmlns="http://www.w3.org/2000/svg" xmlns:xlink="http://www.w3.org/1999/xlink" x="0px" y="0px"
	 viewBox="0 0 100 100" style="enable-background:new 0 0 100 100;" xml:space="preserve">
<style type="text/css">
	.st0{fill:#60B8AD;}
	.st1{fill:#FFFFFF;}
</style>
<g id="XMLID_119_">
	<circle id="XMLID_79_" class="st0" cx="57.5" cy="50" r="25"/>
	<g id="XMLID_110_">
		<g id="XMLID_333_">
			<g id="Computer_1">
				<g id="XMLID_54_">
					<path id="XMLID_55_" class="st1" d="M49.1,34.2H24.8c-4,0-7.3,3.3-7.3,7.3V56c0,4,3.3,7.3,7.3,7.3h7.3c0,1.3-1.1,2.4-2.4,2.4
						h-1.2c-2,0-3.6,1.6-3.6,3.6c0,2,1.6,3.6,3.6,3.6h17c2,0,3.6-1.6,3.6-3.6c0-2-1.6-3.6-3.6-3.6h-1.2c-1.3,0-2.4-1.1-2.4-2.4h7.3
						c4,0,7.3-3.3,7.3-7.3V41.4C56.3,37.4,53.1,34.2,49.1,34.2z M44.2,68.1h1.2c0.7,0,1.2,0.5,1.2,1.2s-0.5,1.2-1.2,1.2h-17
						c-0.7,0-1.2-0.5-1.2-1.2s0.5-1.2,1.2-1.2h1.2c2.7,0,4.9-2.2,4.9-4.9h4.9C39.4,66,41.5,68.1,44.2,68.1z M53.9,56
						c0,2.7-2.2,4.9-4.9,4.9H24.8c-2.7,0-4.9-2.2-4.9-4.9V41.4c0-2.7,2.2-4.9,4.9-4.9h24.3c2.7,0,4.9,2.2,4.9,4.9V56z"/>
				</g>
			</g>
			<g id="Computer_2">
				<g id="XMLID_39_">
					<path id="XMLID_41_" class="st1" d="M49.1,39H24.8c-1.3,0-2.4,1.1-2.4,2.4V56c0,1.3,1.1,2.4,2.4,2.4h24.3
						c1.3,0,2.4-1.1,2.4-2.4V41.4C51.5,40.1,50.4,39,49.1,39z M49.1,56H24.8V41.4h24.3V56z"/>
				</g>
			</g>
		</g>
		<g id="XMLID_151_">
			<rect id="XMLID_143_" x="52.9" y="51.5" class="st0" width="13.7" height="20.4"/>
			<g id="XMLID_265_">
				<g id="Mobile_1_2_">
					<g id="XMLID_61_">
						<path id="XMLID_62_" class="st1" d="M64.7,50.4h-9.9c-1.6,0-2.8,1.3-2.8,2.8v17c0,1.6,1.3,2.8,2.8,2.8h9.9
							c1.6,0,2.8-1.3,2.8-2.8v-17C67.5,51.7,66.2,50.4,64.7,50.4z M66.1,70.2c0,0.8-0.6,1.4-1.4,1.4h-9.9c-0.8,0-1.4-0.6-1.4-1.4
							v-17c0-0.8,0.6-1.4,1.4-1.4h9.9c0.8,0,1.4,0.6,1.4,1.4V70.2z M59.7,68.8c-0.4,0-0.7,0.3-0.7,0.7s0.3,0.7,0.7,0.7
							s0.7-0.3,0.7-0.7S60.1,68.8,59.7,68.8z"/>
					</g>
				</g>
				<g id="Mobile_2_2_">
					<g id="XMLID_40_">
						<path id="XMLID_45_" class="st1" d="M54.8,53.2v14.1h9.9V53.2H54.8z M63.3,65.9h-7.1V54.6h7.1V65.9z"/>
					</g>
				</g>
			</g>
		</g>
	</g>
</g>
</svg>
