<?xml version="1.0" encoding="utf-8"?>
<!-- Generator: Adobe Illustrator 19.0.0, SVG Export Plug-In . SVG Version: 6.00 Build 0)  -->
<svg version="1.1" id="Layer_1" xmlns="http://www.w3.org/2000/svg" xmlns:xlink="http://www.w3.org/1999/xlink" x="0px" y="0px"
	 viewBox="0 0 100 100" style="enable-background:new 0 0 100 100;" xml:space="preserve">
<style type="text/css">
	.st0{fill:#155674;}
	.st1{fill:#FFFFFF;}
</style>
<g id="XMLID_117_">
	<circle id="XMLID_610_" class="st0" cx="45.1" cy="48.9" r="25"/>
	<g id="XMLID_469_">
		<g id="Mail_1_2_">
			<g id="XMLID_34_">
				<path id="XMLID_35_" class="st1" d="M70.5,38.9H39.3c-5.2,0-9.4,4.2-9.4,9.4V67c0,5.2,4.2,9.4,9.4,9.4h31.3
					c5.2,0,9.4-4.2,9.4-9.4V48.3C79.9,43.1,75.7,38.9,70.5,38.9z M76.8,67c0,3.4-2.8,6.3-6.3,6.3H39.3c-3.4,0-6.3-2.8-6.3-6.3V48.3
					c0-3.4,2.8-6.3,6.3-6.3h31.3c3.4,0,6.3,2.8,6.3,6.3V67z"/>
			</g>
		</g>
		<g id="Mail_2_2_">
			<g id="XMLID_16_">
				<path id="XMLID_17_" class="st1" d="M71.6,65.9l-9.2-9.2l9.1-7.2c0.7-0.5,0.8-1.5,0.2-2.2c-0.5-0.7-1.5-0.8-2.2-0.2L54.9,58.7
					L40.3,47c-0.7-0.5-1.7-0.4-2.2,0.2c-0.5,0.7-0.4,1.7,0.2,2.2l9.1,7.2l-9.2,9.2c-0.6,0.6-0.6,1.6,0,2.2c0.3,0.3,0.7,0.5,1.1,0.5
					s0.8-0.2,1.1-0.5l9.4-9.4c0,0,0,0,0-0.1l4.1,3.3c0.3,0.2,0.6,0.3,1,0.3s0.7-0.1,1-0.3l4.1-3.3c0,0,0,0,0,0.1l9.4,9.4
					c0.3,0.3,0.7,0.5,1.1,0.5s0.8-0.2,1.1-0.5C72.3,67.5,72.3,66.5,71.6,65.9z"/>
			</g>
		</g>
	</g>
</g>
</svg>
