<?xml version="1.0" encoding="utf-8"?>
<!-- Generator: Adobe Illustrator 19.0.0, SVG Export Plug-In . SVG Version: 6.00 Build 0)  -->
<svg version="1.1" id="Layer_1" xmlns="http://www.w3.org/2000/svg" xmlns:xlink="http://www.w3.org/1999/xlink" x="0px" y="0px"
	 viewBox="-329 331 300 300" style="enable-background:new -329 331 300 300;" xml:space="preserve">
<path id="XMLID_31_" d="M-179,333.5l-127.7,73.8v147.5l127.7,73.8l127.7-73.8V407.3L-179,333.5z M-277.2,424.3l98.2-56.7l0,0l0,0
	l0,0l19.6,11.3l0,0c0,0-117.9,68-117.9,68L-277.2,424.3z M-179,594.4c0,0-98.2-56.7-98.2-56.7v-22.7l0,0l117.9,68L-179,594.4z
	 M-129.9,566.1l-121.8-70.3h0l0,0l0,0h170.9l0,42C-80.8,537.7-129.9,566.1-129.9,566.1z M-80.8,424.3v42l-170.9,0l121.8-70.3
	C-129.9,395.9-80.8,424.3-80.8,424.3L-80.8,424.3z"/>
</svg>
