<?xml version="1.0" encoding="utf-8"?>
<!-- Generator: Adobe Illustrator 19.0.0, SVG Export Plug-In . SVG Version: 6.00 Build 0)  -->
<svg version="1.1" id="Layer_1" xmlns="http://www.w3.org/2000/svg" xmlns:xlink="http://www.w3.org/1999/xlink" x="0px" y="0px"
	 viewBox="0 0 300 300" style="enable-background:new 0 0 300 300;" xml:space="preserve">
<path id="XMLID_31_" d="M150,2.5L22.3,76.3v147.5L150,297.5l127.7-73.8V76.3L150,2.5z M51.8,93.3L150,36.6l0,0l0,0l0,0l19.6,11.3
	l0,0c0,0-117.9,68-117.9,68L51.8,93.3z M150,263.4c0,0-98.2-56.7-98.2-56.7v-22.7l0,0l117.9,68L150,263.4z M199.1,235.1L77.3,164.8
	h0l0,0l0,0h170.9l0,42C248.2,206.7,199.1,235.1,199.1,235.1z M248.2,93.3v42l-170.9,0l121.8-70.3C199.1,64.9,248.2,93.3,248.2,93.3
	L248.2,93.3z"/>
</svg>
